<?xml version="1.0" encoding="utf-8"?>
<!-- Generator: Adobe Illustrator 22.0.1, SVG Export Plug-In . SVG Version: 6.00 Build 0)  -->
<svg version="1.1" id="Capa_1" xmlns="http://www.w3.org/2000/svg" xmlns:xlink="http://www.w3.org/1999/xlink" x="0px" y="0px"
	 viewBox="0 0 600 600" style="enable-background:new 0 0 600 600;" xml:space="preserve">
<style type="text/css">
	.st0{fill:#EDEDED;}
	.st1{fill:none;stroke:#FCFCFC;stroke-width:14;stroke-miterlimit:10;}
	.st2{fill:#A5A5A5;}
</style>
<rect class="st0" width="602" height="600"/>
<g>
	<path class="st1" d="M450.5,271.7v-31.4h10.1c1.9,0,3.9-1.4,3.9-3.9v-27.5c0-1.9-1.4-3.9-3.9-3.9h-80.2v-66.2
		c0-1.9-1.4-3.9-3.9-3.9H187.7c-1.9,0-3.9,1.4-3.9,3.9V307h7.2v-24.2h87.5v-7.2h-87v-28h80.2v-7.2h-80.2v-28h80.2v-7.2h-80.2v-27.5
		h80.2v-7.2h-80.2v-27.5h181.7v27.5H293v7.2h80.2v27.5H293c-1.9,0-3.9,1.4-3.9,3.9v28c0,1.9,1.4,3.9,3.9,3.9h10.1v69.6h-66.2v7.2
		h66.2v28h-45.4v7.2h45.4v27.5h-45.4v7.2h45.4v28h-45.4v7.2h45.4v34.8H191.5v-28c27.5-1.9,49.3-24.6,49.3-52.7
		c0-29-23.7-52.7-52.7-52.7c-29.5,0-52.7,23.7-52.7,52.7c0,27.5,21.7,50.7,48.8,52.7v28h-45.4v7.2h322.3v-7.2h-45.4v-28
		c27.5-2.4,48.8-34.3,48.8-73.4c0-40.6-23.7-73.4-52.7-73.4s-52.7,32.9-52.7,73.4c0,38.7,21.7,70.5,49.3,73.4v28h-98.1V240.3h132.9
		v31.4H450.5z M142.7,377.1c0-25.1,20.3-45.4,45.4-45.4s45.4,20.3,45.4,45.4c0,23.7-18.4,43.5-42,45.4v-44.9h-7.2v44.9
		C161.1,420.1,142.7,400.7,142.7,377.1z M366.4,355.8c0-36.7,20.3-66.2,45.4-66.2s45.4,30,45.4,66.2c0,34.8-18.4,63.3-41.6,66.2
		v-44.9h-7.2V422C384.8,419.1,366.4,390.6,366.4,355.8z M307,233.1h-10.1v-20.8h160.9v20.8h-10.1H307z"/>
	<rect x="327.8" y="268.4" class="st1" width="14" height="7.2"/>
	<rect x="327.8" y="303.1" class="st1" width="14" height="7.2"/>
	<rect x="327.8" y="338.4" class="st1" width="14" height="7.2"/>
	<rect x="327.8" y="373.2" class="st1" width="14" height="7.2"/>
	<rect x="327.8" y="408.5" class="st1" width="14" height="7.2"/>
	<rect x="363.1" y="268.4" class="st1" width="14" height="7.2"/>
</g>
<g>
	<path class="st2" d="M450.5,271.7v-31.4h10.1c1.9,0,3.9-1.4,3.9-3.9v-27.5c0-1.9-1.4-3.9-3.9-3.9h-80.2v-66.2
		c0-1.9-1.4-3.9-3.9-3.9H187.7c-1.9,0-3.9,1.4-3.9,3.9V307h7.2v-24.2h87.5v-7.2h-87v-28h80.2v-7.2h-80.2v-28h80.2v-7.2h-80.2v-27.5
		h80.2v-7.2h-80.2v-27.5h181.7v27.5H293v7.2h80.2v27.5H293c-1.9,0-3.9,1.4-3.9,3.9v28c0,1.9,1.4,3.9,3.9,3.9h10.1v69.6h-66.2v7.2
		h66.2v28h-45.4v7.2h45.4v27.5h-45.4v7.2h45.4v28h-45.4v7.2h45.4v34.8H191.5v-28c27.5-1.9,49.3-24.6,49.3-52.7
		c0-29-23.7-52.7-52.7-52.7c-29.5,0-52.7,23.7-52.7,52.7c0,27.5,21.7,50.7,48.8,52.7v28h-45.4v7.2h322.3v-7.2h-45.4v-28
		c27.5-2.4,48.8-34.3,48.8-73.4c0-40.6-23.7-73.4-52.7-73.4s-52.7,32.9-52.7,73.4c0,38.7,21.7,70.5,49.3,73.4v28h-98.1V240.3h132.9
		v31.4H450.5z M142.7,377.1c0-25.1,20.3-45.4,45.4-45.4s45.4,20.3,45.4,45.4c0,23.7-18.4,43.5-42,45.4v-44.9h-7.2v44.9
		C161.1,420.1,142.7,400.7,142.7,377.1z M366.4,355.8c0-36.7,20.3-66.2,45.4-66.2s45.4,30,45.4,66.2c0,34.8-18.4,63.3-41.6,66.2
		v-44.9h-7.2V422C384.8,419.1,366.4,390.6,366.4,355.8z M307,233.1h-10.1v-20.8h160.9v20.8h-10.1H307z"/>
	<rect x="327.8" y="268.4" class="st2" width="14" height="7.2"/>
	<rect x="327.8" y="303.1" class="st2" width="14" height="7.2"/>
	<rect x="327.8" y="338.4" class="st2" width="14" height="7.2"/>
	<rect x="327.8" y="373.2" class="st2" width="14" height="7.2"/>
	<rect x="327.8" y="408.5" class="st2" width="14" height="7.2"/>
	<rect x="363.1" y="268.4" class="st2" width="14" height="7.2"/>
</g>
</svg>
