<?xml version="1.0" encoding="utf-8"?>
<!-- Generator: Adobe Illustrator 17.0.0, SVG Export Plug-In . SVG Version: 6.00 Build 0)  -->
<!DOCTYPE svg PUBLIC "-//W3C//DTD SVG 1.1//EN" "http://www.w3.org/Graphics/SVG/1.1/DTD/svg11.dtd">
<svg version="1.1" id="Capa_1" xmlns="http://www.w3.org/2000/svg" xmlns:xlink="http://www.w3.org/1999/xlink" x="0px" y="0px"
	 width="600px" height="600px" viewBox="0 0 600 600" enable-background="new 0 0 600 600" xml:space="preserve">
<rect fill="#EDEDED" width="602" height="600"/>
<g>
	<path fill="#FFFFFF" enable-background="new    " d="M373.963,285.642c-1.24-0.621-2.492-1.228-3.756-1.82
		c12.612-18.31,19.439-40.79,19.439-64.612c0-57.461-40.525-94.209-90.337-94.209s-90.337,36.747-90.337,94.209
		c0,23.836,6.826,46.312,19.437,64.618c-1.958,0.895-3.262,1.555-3.833,1.851c-52.943,24.305-87.136,47.408-87.136,105.366v36.116
		c0,15.547,12.648,28.195,28.196,28.195h267.348c15.547,0,28.195-12.648,28.195-28.195v-36.116
		C461.179,333.058,426.951,309.931,373.963,285.642z"/>
	<g opacity="0.5">
		<path fill="#A5A5A5" d="M369.741,294.448c-0.486,0.594-0.954,1.203-1.452,1.786c-18.265,21.41-42.763,33.201-68.979,33.201
			c-26.217,0-50.714-11.791-68.979-33.201c-0.498-0.584-0.967-1.192-1.452-1.786c-48.062,21.961-81.673,40.542-81.673,96.596v36.116
			c0,10.179,8.252,18.431,18.431,18.431h267.348c10.179,0,18.431-8.252,18.431-18.431v-36.116
			C451.415,334.99,417.803,316.409,369.741,294.448z"/>
		<path fill="#A5A5A5" d="M299.31,313.655c21.168,0,40.419-9.582,54.798-25.231c15.848-17.247,25.775-41.867,25.775-69.214
			c0-52.161-36.073-84.444-80.572-84.444s-80.573,32.284-80.573,84.444c0,27.347,9.927,51.967,25.774,69.214
			C258.891,304.073,278.142,313.655,299.31,313.655z"/>
	</g>
</g>
</svg>
