<?xml version="1.0" encoding="utf-8"?>
<!-- Generator: Adobe Illustrator 17.0.0, SVG Export Plug-In . SVG Version: 6.00 Build 0)  -->
<!DOCTYPE svg PUBLIC "-//W3C//DTD SVG 1.1//EN" "http://www.w3.org/Graphics/SVG/1.1/DTD/svg11.dtd">
<svg version="1.1" id="Capa_1" xmlns="http://www.w3.org/2000/svg" xmlns:xlink="http://www.w3.org/1999/xlink" x="0px" y="0px"
	 width="600px" height="600px" viewBox="0 0 600 600" enable-background="new 0 0 600 600" xml:space="preserve">
<g>
	
		<path fill="none" stroke="#848484" stroke-width="8.5039" stroke-linecap="round" stroke-linejoin="round" stroke-miterlimit="10" d="
		M44.516,572.883c8.264,5.307,17.946,7.963,29.046,7.963c9.108,0,17.102-1.991,23.979-5.973c6.936-4.039,12.261-9.694,15.971-16.965
		c3.709-7.269,5.564-15.759,5.564-25.472v-82.132"/>
	
		<path fill="none" stroke="#848484" stroke-width="8.5039" stroke-linecap="round" stroke-linejoin="round" stroke-miterlimit="10" d="
		M95.911,450.304v80.142c0,9.109-1.916,16.061-5.746,20.856c-3.831,4.796-9.396,7.194-16.694,7.194
		c-6.515,0-12.156-1.539-16.921-4.615c-4.765-3.077-8.776-7.75-12.034-14.026"/>
	
		<path fill="none" stroke="#848484" stroke-width="8.5039" stroke-linecap="round" stroke-linejoin="round" stroke-miterlimit="10" d="
		M163.427,480.137c5.67-10.075,13.602-17.946,23.797-23.618c10.074-5.61,21.445-8.415,34.113-8.415
		c12.547,0,23.902,2.821,34.068,8.46c10.164,5.641,18.111,13.497,23.843,23.572c5.669,10.074,8.505,21.324,8.505,33.75
		c0,12.428-2.836,23.662-8.505,33.706c-5.671,10.045-13.604,17.902-23.798,23.572c-9.952,5.67-21.324,8.505-34.113,8.505
		c-12.547,0-23.904-2.818-34.067-8.46c-10.165-5.64-18.112-13.497-23.843-23.571 M199.304,475.567
		c-6.424,3.65-11.447,8.853-15.066,15.608c-3.68,6.577-5.519,14.147-5.519,22.712c0,8.386,1.778,15.897,5.339,22.531
		c3.558,6.637,8.626,11.854,15.201,15.655c6.575,3.741,13.935,5.609,22.079,5.609c8.203,0,15.533-1.823,21.989-5.473
		c6.454-3.649,11.522-8.852,15.201-15.609c3.619-6.635,5.429-14.207,5.429-22.712c0-8.383-1.78-15.893-5.339-22.531
		c-3.56-6.634-8.626-11.854-15.202-15.654c-6.575-3.74-13.935-5.61-22.078-5.61C213.072,470.093,205.728,471.917,199.304,475.567z"
		/>
	
		<path fill="none" stroke="#848484" stroke-width="8.5039" stroke-linecap="round" stroke-linejoin="round" stroke-miterlimit="10" d="
		M328.55,448.557h50.942c15.201,0,26.905,3.123,35.11,9.365c8.202,6.244,12.305,15.188,12.305,26.83
		c0,5.067-0.966,9.758-2.895,14.069c-1.932,4.314-4.646,7.827-8.143,10.543c-1.329,0.965-2.747,1.809-4.255,2.533
		c3.499,1.448,6.651,3.439,9.457,5.973c2.805,2.533,5.112,5.459,6.922,8.776c2.411,4.464,3.619,9.351,3.619,14.659
		c0,12.367-4.193,21.777-12.578,28.231c-8.386,6.456-20.6,9.682-36.647,9.682H328.55 M351.894,502.396h26.965
		c5.85,0,10.361-0.453,13.527-1.358c3.167-0.905,5.655-2.443,7.466-4.615c1.81-2.292,2.714-5.669,2.714-10.135
		c0-4.886-1.146-8.474-3.438-10.766c-2.293-2.293-5.008-3.68-8.143-4.164c-3.138-0.482-7.24-0.724-12.306-0.724h-26.784V502.396z
		 M351.894,557.139h29.589c6.152,0,11.007-0.512,14.568-1.537c3.559-1.026,6.334-2.684,8.325-4.977
		c1.93-2.353,2.895-5.702,2.895-10.043c0-3.922-0.845-7.06-2.533-9.411c-1.69-2.352-4.404-4.073-8.144-5.158
		c-3.74-1.085-8.776-1.628-15.11-1.628h-29.589V557.139z"/>
	
		<path fill="none" stroke="#848484" stroke-width="8.5039" stroke-linecap="round" stroke-linejoin="round" stroke-miterlimit="10" d="
		M476.823,579.217h66.94c6.097,0,11.039-4.942,11.039-11.039s-4.942-11.039-11.039-11.039h-43.596v-32.665h43.596
		c6.097,0,11.039-4.942,11.039-11.039v-0.001c0-6.097-4.942-11.039-11.039-11.039h-43.596v-31.761h43.596
		c6.097,0,11.039-4.943,11.039-11.039c0-6.097-4.942-11.039-11.039-11.039h-66.94"/>
</g>
<g>
	<defs>
		<path id="SVGID_1_" d="M107.611,209.201c0,106.378,85.67,192.049,192.049,192.049c106.064-0.001,192.046-85.983,192.046-192.048
			c0-51.915-20.601-99.017-54.072-133.581c-5.83-6.02-16.021-1.925-16.021,6.454v105.553c0,50.073-15.437,87.477-42.449,112.814
			c-27.657,25.941-68.176,39.213-117.058,39.213c-33.165,0-61.003-6.483-84.402-16.953v-1.021c0-40.402,34.597-71.6,74.884-68.554
			c2.281,0.173,4.595,0.261,6.946,0.261c37.303,0,60.458-21.116,60.458-69.981V37.292c0-11.118-9.01-20.133-20.128-20.138
			l-0.205-0.001C193.595,17.153,107.612,103.137,107.611,209.201"/>
	</defs>
	<clipPath id="SVGID_2_">
		<use xlink:href="#SVGID_1_"  overflow="visible"/>
	</clipPath>
	
		<linearGradient id="SVGID_3_" gradientUnits="userSpaceOnUse" x1="-298.8778" y1="900.951" x2="-298.0796" y2="900.951" gradientTransform="matrix(0 653.1279 653.1279 0 -588136.5625 195180.7813)">
		<stop  offset="0" style="stop-color:#F9EC43"/>
		<stop  offset="0.0172" style="stop-color:#F8E740"/>
		<stop  offset="0.1019" style="stop-color:#F2D436"/>
		<stop  offset="0.1889" style="stop-color:#EFC930"/>
		<stop  offset="0.2809" style="stop-color:#EEC52E"/>
		<stop  offset="0.6685" style="stop-color:#D88D3E"/>
		<stop  offset="0.8876" style="stop-color:#CB6037"/>
		<stop  offset="1" style="stop-color:#C23431"/>
	</linearGradient>
	<rect x="107.611" y="17.153" clip-path="url(#SVGID_2_)" fill="url(#SVGID_3_)" width="384.096" height="384.097"/>
</g>
<g>
	<g opacity="0.3">
		<g>
			<defs>
				<rect id="SVGID_4_" x="107.611" y="17.154" width="212.382" height="200.503"/>
			</defs>
			<clipPath id="SVGID_5_">
				<use xlink:href="#SVGID_4_"  overflow="visible"/>
			</clipPath>
			<path clip-path="url(#SVGID_5_)" fill="#DA8F22" d="M299.659,34.021h0.206c11.118,0.006,20.128,9.021,20.128,20.138V37.293
				c0-11.118-9.01-20.133-20.128-20.138l-0.206-0.001c-106.064,0-192.047,85.983-192.048,192.047c0,2.835,0.073,5.651,0.194,8.456
				C112.211,115.496,196.414,34.021,299.659,34.021"/>
		</g>
	</g>
	<g opacity="0.3">
		<g>
			<defs>
				<rect id="SVGID_6_" x="421.614" y="72.796" width="70.093" height="144.86"/>
			</defs>
			<clipPath id="SVGID_7_">
				<use xlink:href="#SVGID_6_"  overflow="visible"/>
			</clipPath>
			<path clip-path="url(#SVGID_7_)" fill="#DA8F22" d="M437.635,92.528c31.645,32.678,51.773,76.565,53.877,125.128
				c0.121-2.791,0.194-5.593,0.194-8.413c0-51.915-20.6-99.018-54.071-133.582c-5.83-6.02-16.021-1.925-16.021,6.455v16.867
				C421.614,90.603,431.805,86.508,437.635,92.528"/>
		</g>
	</g>
	<g opacity="0.3">
		<g>
			<defs>
				<rect id="SVGID_8_" x="176.043" y="186.4" width="245.571" height="170.043"/>
			</defs>
			<clipPath id="SVGID_9_">
				<use xlink:href="#SVGID_8_"  overflow="visible"/>
			</clipPath>
			<path clip-path="url(#SVGID_9_)" fill="#DA8F22" d="M176.043,339.373c23.559,10.542,51.585,17.07,84.977,17.07
				c49.214,0,90.011-13.361,117.855-39.48c27.198-25.51,42.738-63.169,42.738-113.581V186.4c0,50.413-15.541,88.071-42.738,113.581
				c-27.844,26.118-68.641,39.48-117.855,39.48c-32.607,0-60.084-6.235-83.295-16.344c-1.098,4.887-1.682,9.979-1.682,15.228
				V339.373z"/>
		</g>
	</g>
</g>
</svg>
