<?xml version="1.0" encoding="utf-8"?>
<!-- Generator: Adobe Illustrator 17.0.0, SVG Export Plug-In . SVG Version: 6.00 Build 0)  -->
<!DOCTYPE svg PUBLIC "-//W3C//DTD SVG 1.1//EN" "http://www.w3.org/Graphics/SVG/1.1/DTD/svg11.dtd">
<svg version="1.1" id="Capa_1" xmlns="http://www.w3.org/2000/svg" xmlns:xlink="http://www.w3.org/1999/xlink" x="0px" y="0px"
	 width="110.028px" height="194.688px" viewBox="0 0 110.028 194.688" enable-background="new 0 0 110.028 194.688"
	 xml:space="preserve">
<g>
	<g>
		<polygon fill="#E8CA70" points="55.014,147.89 55.043,147.899 55.014,147.86 		"/>
		<polygon fill="#D3D4D6" points="55.014,90.044 38.014,124.491 55.014,147.86 		"/>
		<polygon fill="#E8CA70" points="55.014,147.908 55.043,147.899 55.014,147.89 		"/>
		<polygon fill="#C2C3C5" points="55.043,147.899 72.014,124.491 55.014,90.044 55.014,147.86 		"/>
		<polygon fill="#E8CA70" points="55.014,147.939 55.043,147.899 55.014,147.908 		"/>
		<polygon fill="#D3D4D6" points="110.028,130.015 72.014,124.491 55.043,147.899 		"/>
		<polygon fill="#C2C3C5" points="82.521,156.827 110.028,130.015 55.043,147.899 		"/>
		<polygon fill="#D3D4D6" points="55.014,147.939 55.014,176.813 89.015,194.688 55.043,147.899 		"/>
		<polygon fill="#A8A9AD" points="55.043,147.899 89.015,194.688 82.521,156.827 		"/>
		<polygon fill="#E8CA70" points="55.014,147.86 38.014,124.491 0,130.015 55.014,147.89 		"/>
		<polygon fill="#E0E0E0" points="55.014,147.86 38.014,124.491 0,130.015 55.014,147.89 		"/>
		<polygon fill="#C2C3C5" points="21.014,194.688 55.014,176.813 55.014,147.939 		"/>
		<polygon fill="#D3D4D6" points="55.014,147.908 27.507,156.827 21.014,194.688 55.014,147.939 		"/>
		<polygon fill="#C2C3C5" points="55.014,147.89 0,130.015 27.507,156.827 55.014,147.908 		"/>
	</g>
	<path fill="#C2C3C5" d="M59.939,94.005H50.09c-4.702,0-8.527-3.825-8.527-8.527v-6.632c0-4.702,3.825-8.527,8.527-8.527h9.849
		c4.702,0,8.527,3.825,8.527,8.527v6.632C68.466,90.18,64.641,94.005,59.939,94.005z M50.09,78.278
		c-0.303,0-0.568,0.265-0.568,0.569v6.632c0,0.303,0.266,0.568,0.568,0.568h9.849c0.303,0,0.568-0.265,0.568-0.568v-6.632
		c0-0.303-0.266-0.569-0.568-0.569H50.09z"/>
	<rect x="50.433" y="86.56" fill="#DFDFDF" width="9.163" height="6.968"/>
	<g>
		<polygon fill="#919191" points="19.589,0 19.589,53.602 33.431,67.443 33.431,0 		"/>
		<polygon fill="#919191" points="76.598,0 76.598,67.443 90.439,53.602 90.439,0 		"/>
		<polygon fill="#DCDDDF" points="11.613,0 11.613,45.625 16.774,50.787 16.774,0 		"/>
		<polygon fill="#DCDDDF" points="93.254,0 93.254,50.786 98.416,45.625 98.416,0 		"/>
		<polygon fill="#FFFFFF" points="16.774,0 16.774,50.787 19.589,53.602 19.589,0 		"/>
		<polygon fill="#FFFFFF" points="90.439,0 90.439,53.602 93.254,50.786 93.254,0 		"/>
		<polygon fill="#D3D4D6" points="49.149,0 33.431,0 33.431,67.443 49.149,83.162 		"/>
		<polygon fill="#D3D4D6" points="60.879,0 60.879,83.162 76.598,67.443 76.598,0 		"/>
		<rect x="49.149" y="0.003" fill="#C2C3C5" width="11.732" height="83.162"/>
	</g>
</g>
</svg>
